<svg width="62" height="62" viewBox="0 0 62 62" fill="none" xmlns="http://www.w3.org/2000/svg">
<rect width="62" height="62" rx="31" fill="black"/>
<path d="M45.5781 15.0987C42.8592 13.6511 39.9522 12.599 36.9131 12C36.5397 12.768 36.1037 13.8009 35.8031 14.6226C32.5724 14.0696 29.3713 14.0696 26.2 14.6226C25.8994 13.8009 25.4534 12.768 25.0769 12C22.0344 12.599 19.1241 13.6549 16.4053 15.1064C10.9216 24.5368 9.43508 33.7332 10.1784 42.7988C13.8154 45.8898 17.3402 47.7674 20.8055 48.9961C21.6611 47.6561 22.4242 46.2316 23.0816 44.7302C21.8296 44.1888 20.6304 43.5208 19.4973 42.745C19.798 42.4917 20.092 42.2267 20.3761 41.9541C27.2869 45.6325 34.7955 45.6325 41.6238 41.9541C41.9111 42.2267 42.2052 42.4917 42.5025 42.745C41.3661 43.5245 40.1637 44.1926 38.9116 44.7341C39.569 46.2316 40.3288 47.66 41.1877 49C44.6563 47.7713 48.1844 45.8937 51.8215 42.7988C52.6936 32.2894 50.3316 23.1776 45.5781 15.0987ZM24.0231 37.2235C21.9485 37.2235 20.2472 35.0194 20.2472 32.3355C20.2472 29.6515 21.9122 27.4436 24.0231 27.4436C26.134 27.4436 27.8352 29.6476 27.7989 32.3355C27.8022 35.0194 26.134 37.2235 24.0231 37.2235ZM37.9768 37.2235C35.9023 37.2235 34.2009 35.0194 34.2009 32.3355C34.2009 29.6515 35.8659 27.4436 37.9768 27.4436C40.0876 27.4436 41.789 29.6476 41.7526 32.3355C41.7526 35.0194 40.0876 37.2235 37.9768 37.2235Z" fill="#5865F2"/>
</svg>
