<svg width="62" height="62" viewBox="0 0 62 62" fill="none" xmlns="http://www.w3.org/2000/svg">
<rect width="62" height="62" rx="31" fill="black"/>
<path d="M23.8682 43.5633V26.8154H18.3064V43.5633H23.8688H23.8682ZM21.0885 24.5291C23.0276 24.5291 24.2348 23.2431 24.2348 21.6359C24.1985 19.992 23.0276 18.7419 21.1253 18.7419C19.2218 18.7419 17.9785 19.992 17.9785 21.6357C17.9785 23.2429 19.1853 24.529 21.052 24.529H21.088L21.0885 24.5291ZM26.9468 43.5633H32.5082V34.2115C32.5082 33.7116 32.5444 33.2104 32.6914 32.8534C33.0933 31.8529 34.0084 30.8172 35.5452 30.8172C37.5572 30.8172 38.3625 32.3529 38.3625 34.6046V43.5633H43.9238V33.9606C43.9238 28.8165 41.1803 26.4227 37.5212 26.4227C34.5212 26.4227 33.2036 28.101 32.4716 29.244H32.5086V26.8159H26.947C27.0196 28.3871 26.9466 43.5639 26.9466 43.5639L26.9468 43.5633Z" fill="white"/>
</svg>
